<?xml version="1.0" encoding="utf-8"?>
<!-- Generator: Adobe Illustrator 24.1.3, SVG Export Plug-In . SVG Version: 6.00 Build 0)  -->
<svg version="1.1" id="Layer_1" xmlns="http://www.w3.org/2000/svg" xmlns:xlink="http://www.w3.org/1999/xlink" x="0px" y="0px"
	 viewBox="0 0 750.7 540.2" style="enable-background:new 0 0 750.7 540.2;" xml:space="preserve">
<style type="text/css">
	.st0{opacity:0.1;fill:#FF9900;enable-background:new    ;}
	.st1{opacity:0.2;}
	.st2{fill:#3F3D56;}
	.st3{fill:#FF9900;}
	.st4{opacity:0.1;enable-background:new    ;}
	.st5{fill:#F1C0C0;}
	.st6{fill:#BE6F72;}
	.st7{opacity:0.2;enable-background:new    ;}
	.st8{fill:#FED253;}
	.st9{fill:#FBBEBE;}
	.st10{font-family:'Nunito-ExtraBoldItalic';}
	.st11{font-size:59.0609px;}
</style>
<path class="st0" d="M729.5,298.1c0,11.9-1.4,23.7-4.3,35.2c-1,3.9-2.1,7.7-3.3,11.4c-1.6,4.6-3.4,9.1-5.4,13.5
	c-1,2.2-2.1,4.4-3.3,6.5c0,12.2-2.5,24.2-7.4,35.4c-8.8,20-24.5,36.2-44.3,45.6c-12.4,5.9-25.9,9-39.5,9.1H152
	c-20.9,0-41.5-5.4-59.6-15.9l-0.3-0.2c-2.6-1.5-5.1-3.1-7.5-4.8c-5.5-3.8-10.7-8.1-15.5-12.8c-6.5-6.3-12.2-13.4-17-21.1
	c-11.3-18-17.3-38.8-17.3-60.1C23.4,320,16.7,295.9,16.7,270c0-32.7,10.6-62.5,28.1-85.1c3.6-4.7,7.6-9.2,11.9-13.3
	c4.2-4.1,8.8-7.8,13.6-11.2c3.9-2.7,7.9-5.1,12.1-7.3c1.7-0.9,3.5-1.7,5.3-2.5c1.6-0.7,3.2-1.3,4.8-2c1.9-0.7,3.9-1.4,5.8-2
	c2-0.6,3.9-1.1,5.8-1.6c2.8-0.7,5.7-1.3,8.6-1.7c2.4-0.4,4.8-0.6,7.3-0.8c1.9-0.1,3.9-0.2,5.8-0.2h1.1c2.2,0,4.3,0.1,6.4,0.2
	c0.2-0.4,0.5-0.9,0.7-1.3c0.8-1.6,1.7-3.2,2.6-4.8c0,0,0,0,0,0c0.2-0.3,0.3-0.6,0.5-0.8c0.7-1.3,1.5-2.6,2.2-3.8
	c0.4-0.6,0.7-1.2,1.1-1.7c0.1-0.1,0.2-0.3,0.2-0.4c0.4-0.6,0.7-1.2,1.1-1.8c1.9-3,3.8-5.9,5.8-8.8l0.5-0.7c0.3-0.4,0.6-0.9,1-1.3
	c0.8-1.2,1.7-2.3,2.6-3.5c0.6-0.8,1.2-1.6,1.9-2.4c1.6-2,3.2-4,4.8-6.1c1.7-2,3.4-4,5.2-6c0.2-0.3,0.5-0.5,0.7-0.8l2.6-2.8l0,0
	c0.1-0.1,0.2-0.3,0.4-0.4l0,0c0.3-0.3,0.6-0.7,0.9-1c1.4-1.5,2.8-2.9,4.2-4.3c7.3-7.2,15-14,23.2-20.2c0.3-0.3,0.6-0.5,1-0.7
	c1.5-1.2,3.1-2.3,4.7-3.4c8.6-6.2,17.6-11.8,26.9-16.8c0.6-0.4,1.3-0.7,2-1.1c8.3-4.4,16.9-8.4,25.7-11.8c4.8-1.9,9.7-3.7,14.6-5.3
	c3.3-1.1,6.6-2.1,9.9-3.1c5.2-1.5,10.5-2.8,15.7-4c15.6-3.5,31.4-5.7,47.4-6.5c4.8-0.2,9.7-0.4,14.7-0.4c23.9,0,47.7,3,70.8,9
	c0.5,0.7,1.3,1.2,2.2,1.1h2c0.9,0.2,1.8,0.5,2.6,0.7c4.9,1.4,9.8,3,14.6,4.7l1.2,0.4c11.8,4.2,23.3,9.3,34.4,15.1
	c10,5.3,19.6,11.2,28.8,17.8c1.4,1,2.8,2,4.2,3.1c1.7-1.1,3.4-2.1,5.1-3.1c6.7-3.8,13.8-6.8,21.1-9c15.4-4.6,31.7-5.2,47.4-1.9
	c20.1,4.3,38.3,14.9,53.1,29.9c6,6.2,11.3,12.9,15.9,20.2c0.3,0.5,0.7,1,1,1.6c3.9,6.4,7.3,13.2,10.1,20.2c0.1,0.3,0.2,0.5,0.3,0.8
	c2.6,6.6,4.7,13.3,6.2,20.2c0.1,0.4,0.2,0.7,0.2,1c1.5,6.7,2.5,13.4,3,20.2c0,0.2,0,0.5,0,0.7c0.3,3.5,0.4,7.1,0.4,10.7
	c0,3.2-0.1,6.4-0.3,9.6c0,0.3,0,0.7-0.1,1.1c-0.1,0.9-0.1,1.8-0.2,2.7c4.6,3.7,8.9,7.8,12.9,12.2c1.8,1.9,3.5,3.9,5.1,6
	c5,6.3,9.4,13.1,13.2,20.2C723.7,251.1,729.5,273.8,729.5,298.1z"/>
<path class="st0" d="M661.1,443.6c0,4.1-14.2,8-39.1,11.3H152c-20.9,0-41.5-5.4-59.6-15.9l-0.3-0.2c7.1-2.6,20-5,37.6-7.2l0,0
	l0.8-0.1c7.9-1,16.7-1.9,26.3-2.7c0.2,0,0.5,0,0.7-0.1l0,0c7.6-0.7,15.7-1.3,24.3-1.9c0.3,0,0.5,0,0.8-0.1c3.3-0.2,6.7-0.5,10.2-0.7
	l0,0l1.3-0.1c25.1-1.6,53.7-2.8,84.7-3.6h0c4.3-0.1,8.7-0.2,13.2-0.3c4.9-0.1,9.9-0.2,15-0.3c3.9-0.1,7.8-0.1,11.7-0.2h0.1
	c17.7-0.3,35.9-0.4,54.6-0.4c46.2,0,89.8,0.8,128.4,2.4h0.1c5.9,0.2,11.8,0.5,17.5,0.7l4.8,0.2c6.4,0.3,12.7,0.6,18.8,1l0,0
	C614.6,429.5,661.1,436.2,661.1,443.6z"/>
<g class="st1">
	<path class="st2" d="M428.4,418.4c0,0.7-0.1,1.3-0.2,1.9c-4.2-0.7-8.4-1.3-12.7-1.8c0-0.2,0-0.3,0-0.5c0-1.8,0.6-3.6,1.5-5.1
		c1.2-2,3.1-3.2,5.2-3.1s3.9,1.4,5,3.5C428.1,414.8,428.5,416.6,428.4,418.4z"/>
	
		<ellipse transform="matrix(3.158516e-02 -0.9995 0.9995 3.158516e-02 1.3418 817.0323)" class="st2" cx="422.3" cy="407.8" rx="8.5" ry="6.5"/>
	
		<ellipse transform="matrix(3.158516e-02 -0.9995 0.9995 3.158516e-02 12.0177 807.3282)" class="st2" cx="422.6" cy="397.5" rx="8.5" ry="6.5"/>
	
		<ellipse transform="matrix(3.158516e-02 -0.9995 0.9995 3.158516e-02 22.6878 797.6182)" class="st2" cx="423" cy="387.1" rx="8.5" ry="6.5"/>
	
		<ellipse transform="matrix(3.158516e-02 -0.9995 0.9995 3.158516e-02 33.3579 787.9081)" class="st2" cx="423.3" cy="376.7" rx="8.5" ry="6.5"/>
	<path class="st3" d="M401.3,305.1c-0.9-1.2-1.6-2.4-2.3-3.6l17.1-2.3l-18.4-0.4c-3.3-7.9-3.3-16.8,0.2-24.6l24.3,13.6l-22.2-17.5
		c9-14.6,28.1-19.1,42.7-10.1c14.6,9,19.1,28.1,10.1,42.7c-0.8,1.3-1.7,2.5-2.7,3.7c1.3,1.8,2.5,3.7,3.4,5.8l-22.4,10.8l23.8-7.2
		c3,10,0.8,21-5.9,29c10.2,13.8,7.2,33.2-6.6,43.4c-13.8,10.2-33.2,7.2-43.4-6.6c-8.5-11.5-8-27.4,1.2-38.4
		C391.5,331.9,392,316,401.3,305.1L401.3,305.1z"/>
	<path class="st4" d="M456,326c-0.2,7-2.8,13.6-7.3,19c10.2,13.8,7.2,33.2-6.6,43.4c-13.8,10.2-33.2,7.2-43.4-6.6
		c-8.5-11.5-8-27.4,1.2-38.4C396,338,456.1,322.5,456,326z"/>
</g>
<g class="st1">
	<path class="st2" d="M336.4,418.4c0,0.7-0.1,1.3-0.2,1.9c-4.2-0.7-8.4-1.3-12.7-1.8c0-0.2,0-0.3,0-0.5c0-1.8,0.6-3.6,1.5-5.1
		c1.2-2,3.1-3.2,5.2-3.1s3.9,1.4,5,3.5C336.1,414.8,336.5,416.6,336.4,418.4z"/>
	
		<ellipse transform="matrix(3.158516e-02 -0.9995 0.9995 3.158516e-02 -87.7523 725.0833)" class="st2" cx="330.3" cy="407.8" rx="8.5" ry="6.5"/>
	
		<ellipse transform="matrix(3.158516e-02 -0.9995 0.9995 3.158516e-02 -77.0763 715.3793)" class="st2" cx="330.6" cy="397.5" rx="8.5" ry="6.5"/>
	
		<ellipse transform="matrix(3.158516e-02 -0.9995 0.9995 3.158516e-02 -66.4063 705.6693)" class="st2" cx="331" cy="387.1" rx="8.5" ry="6.5"/>
	
		<ellipse transform="matrix(3.158516e-02 -0.9995 0.9995 3.158516e-02 -55.7362 695.959)" class="st2" cx="331.3" cy="376.7" rx="8.5" ry="6.5"/>
	<path class="st3" d="M309.3,305.1c-0.9-1.2-1.6-2.4-2.3-3.6l17.1-2.3l-18.4-0.4c-3.3-7.9-3.3-16.8,0.2-24.6l24.3,13.6l-22.2-17.5
		c9-14.6,28.1-19.1,42.7-10.1c14.6,9,19.1,28.1,10.1,42.7c-0.8,1.3-1.7,2.5-2.7,3.7c1.3,1.8,2.5,3.7,3.4,5.8l-22.4,10.8l23.8-7.2
		c3,10,0.8,21-5.9,29c10.2,13.8,7.2,33.2-6.6,43.4c-13.8,10.2-33.2,7.2-43.4-6.6c-8.5-11.5-8-27.4,1.2-38.4
		C299.5,331.9,300,316,309.3,305.1L309.3,305.1z"/>
	<path class="st4" d="M364,326c-0.2,7-2.8,13.6-7.3,19c10.2,13.8,7.2,33.2-6.6,43.4c-13.8,10.2-33.2,7.2-43.4-6.6
		c-8.5-11.5-8-27.4,1.2-38.4C304.1,338,364.2,322.5,364,326z"/>
</g>
<g class="st1">
	<path class="st2" d="M587.7,425c0,1.2-0.2,2.5-0.4,3.7c-8.1-1.3-16.3-2.5-24.5-3.5c0-0.3,0-0.7,0-1c0.1-3.5,1.1-6.9,2.9-9.9
		c2.4-3.8,6.1-6.2,10.1-6.1c4,0.1,7.5,2.7,9.7,6.7C587.1,418,587.9,421.5,587.7,425z"/>
	
		<ellipse transform="matrix(3.158516e-02 -0.9995 0.9995 3.158516e-02 153.246 967.5086)" class="st2" cx="575.9" cy="404.7" rx="16.3" ry="12.5"/>
	
		<ellipse transform="matrix(3.158516e-02 -0.9995 0.9995 3.158516e-02 173.793 948.8196)" class="st2" cx="576.5" cy="384.7" rx="16.3" ry="12.5"/>
	
		<ellipse transform="matrix(3.158516e-02 -0.9995 0.9995 3.158516e-02 194.3456 930.1368)" class="st2" cx="577.2" cy="364.8" rx="16.3" ry="12.5"/>
	
		<ellipse transform="matrix(2.998651e-02 -0.9996 0.9996 2.998651e-02 215.9925 910.4507)" class="st2" cx="577.1" cy="343.9" rx="16.3" ry="12.5"/>
	<path class="st3" d="M535.4,206.8c-1.6-2.2-3.1-4.6-4.4-7l32.9-4.3l-35.4-0.9c-6.4-15.2-6.3-32.3,0.4-47.4l46.8,26.2l-42.8-33.6
		c17.4-28,54.2-36.6,82.3-19.2c28,17.4,36.6,54.2,19.2,82.3c-1.5,2.4-3.2,4.7-5,6.9c2.5,3.5,4.7,7.2,6.5,11.1l-43.2,20.8l45.8-13.8
		c5.9,19.3,1.6,40.3-11.4,55.8c19.6,26.6,13.9,64-12.7,83.5c-26.6,19.6-64,13.9-83.5-12.7c-16.4-22.2-15.4-52.7,2.3-73.8
		C516.7,258.5,517.7,228,535.4,206.8L535.4,206.8z"/>
	<path class="st4" d="M640.9,247.1c-0.4,13.4-5.3,26.3-13.9,36.5c19.6,26.6,13.9,64-12.7,83.5c-26.6,19.6-64,13.9-83.5-12.7
		c-16.4-22.2-15.4-52.7,2.3-73.8C525.4,270.3,641.1,240.4,640.9,247.1z"/>
</g>
<polygon class="st5" points="112.2,426.1 118.6,426 127.5,426 138.8,242.2 250.9,55.2 246.1,49.9 246.1,36.7 124.8,237.9 "/>
<polygon class="st4" points="119.3,426 127.5,426 138.8,242.2 250.9,55.2 246.1,49.9 130.4,239.4 "/>
<polygon class="st5" points="93.5,427.6 383.9,449.8 384.2,449.8 665.2,432.5 665.4,432.5 665.4,420.7 355.8,415 97.4,414.7 
	95.5,414.7 95.3,416.1 "/>
<polygon class="st4" points="93.5,427.6 383.9,449.8 384.2,449.8 665.2,432.5 665.4,432.3 665.4,420.9 665.2,420.9 383.9,430.3 
	97.4,414.7 97.3,414.7 96.8,415.1 95.3,416.1 "/>
<polygon class="st4" points="93.5,427.6 383.9,449.8 383.9,430.3 96.8,415.1 95.3,416.1 "/>
<polygon class="st5" points="246,49.7 374,187.1 370.1,428.8 381,430.1 381.1,430.2 392,430.2 393.3,197.5 633.1,277.6 637.1,420.1 
	645.9,421.1 648.8,421.5 642,267.7 391.3,179.7 253.9,36.8 246,36.8 "/>
<polygon class="st4" points="392.3,193 393.3,197.5 633.1,277.6 637.1,420.1 645.9,421.1 639,274.6 "/>
<polygon class="st4" points="246,49.7 374,187.1 370.1,428.8 381,430.1 383.9,179.2 246,36.8 "/>
<polygon class="st5" points="392.8,290 480.7,307.4 480.8,307.4 634.8,337.7 641.8,334.9 641.8,334.4 641.3,324.5 392.9,274.3 "/>
<polygon class="st4" points="480.8,307.4 634.8,337.7 641.8,334.9 641.8,334.4 "/>
<polygon class="st5" points="486.7,228.7 489,359.6 490.3,426.8 501.1,426.4 507.9,426.2 505.8,230.6 501.1,229 500.1,228.7 "/>
<polygon class="st4" points="486.7,228.6 486.7,228.7 489,359.6 490.3,426.8 501.1,426.4 501.1,228.6 "/>
<path class="st2" d="M317.1,262.1c0.6,0.3,1.2,0.7,1.8,1.2c0.7,0.6,1.3,1.3,1.8,2c2.6,3.4,5,7.3,4.7,11.5c0,1.2-0.5,2.4-1.3,3.3
	c-1.1,0.9-2.6,1-4,1c-1.5,0-3.1,0-4.4-0.8s-2.4-2.3-4-2.3c-0.2,0-0.4,0-0.7,0c-0.5-0.2-0.6-0.9-1-1.3c-0.6-0.8-1.9-0.6-2.8-0.3
	c-1,0.4-2,0.9-2.9,0.5c-0.5-0.3-1-0.7-1.3-1.3c-2.2-3.6-2.7-8-3.1-12.2c-0.3-2.6-2.2-11.3,3.2-9.3c2.4,0.9,4.7,2.6,6.9,3.9
	L317.1,262.1z"/>
<path class="st2" d="M311.6,263c1,0.7,2.4,0.7,3.3-0.1c0.9-0.8,1.5-1.9,1.6-3.1c0.6-0.2,0.9,0.6,1.3,1.1c0.7,0.8,2.1,0.8,2.7,1.7
	c0.4,0.6,0.3,1.4,0.6,2.1c0.4,0.9,1.4,1.3,2,2.1c0.6,0.8,1.1,1.7,1.3,2.7l1,3c0.5,1.2,0.8,2.5,0.9,3.9c0.1,1.3-0.3,2.7-1.1,3.7
	c-1.3,1.4-3.5,1.6-5.4,1.5c-0.6,0-1.3-0.1-1.9-0.2c-1.7-0.5-2.8-2.3-3.3-4c-0.5-1.7-0.4-3.6-0.7-5.3c-0.3-1.7-0.8-3.5-1.5-5.1
	c-0.5-1.3-2-3.1-2-4.5C311,262.3,311.3,262.7,311.6,263z"/>
<path class="st6" d="M313.8,256.8c-0.3-0.9-0.4-1.8-0.5-2.7c0-1.8,0.8-3.5,1.7-5.1l-6.9,0.9c-0.8,0.1-1.8,0.3-2.2,1
	c-0.4,0.7-0.4,1.5,0,2.2c0.3,0.7,0.6,1.4,0.8,2.2c0,0.7,0.1,1.3,0.2,1.9c0.2,0.5,0.5,0.9,0.9,1.3c2,2.2,3.5,4.8,4.9,7.3
	c0-0.1,4.2-3.3,4-4.4c-0.1-0.6-1.3-1.3-1.7-1.9C314.5,258.7,314.1,257.8,313.8,256.8z"/>
<polygon class="st5" points="373.1,233.2 373.1,239.1 271,259.1 265.8,262.3 247.5,262.3 247.5,258.9 347.8,234.7 "/>
<polygon class="st4" points="373.1,239.1 271,259.1 265.8,262.3 247.5,262.3 348.5,240.6 "/>
<path class="st3" d="M291.2,402.4c-2.3-2.8-6.3-3.7-9.6-2c-0.3,0.2-0.6,0.4-0.9,0.7c-0.6,0.8-0.2,2-0.2,3.1c0.1,2.6-1.9,4.6-3.7,6.4
	c-1,1-2,2-2.4,3.3c-0.4,1.3-0.1,3,1.1,3.6c0.5,0.3,1.1,0.4,1.7,0.5c1.9,0.4,3.9,0.4,5.9,0.2c1.9-0.4,3.8-1.5,4.7-3.2
	c0.2-0.5,0.4-0.9,0.8-1.3c1.1-0.8,2.7,0.1,3.9-0.5c1-0.5,1-1.3,1.1-2.3C293.4,407.9,293,404.7,291.2,402.4z"/>
<path class="st3" d="M305.7,402.3c0.7,2,0.8,4.1,0.9,6.2c0.1,1.2,0.1,2.5-0.6,3.5c-0.7,1-1.9,1.6-3.2,1.8c-2.5,0.5-5.4,0-7.1-2
	c-1.2-1.5-1.5-3.6-1.3-5.6c0.2-1.6,0.6-3.5-0.6-4.7c-0.3-0.3-0.7-0.5-1-0.9c-0.6-0.7-0.5-1.9-0.2-2.8c0.4-0.9,0.7-1.8,1-2.7
	c0-0.4,8.2,0.3,8.9,0.7c1,0.5,0.9,1.3,1.2,2.4C304.4,399.7,305.2,400.9,305.7,402.3z"/>
<path class="st2" d="M307.2,315.4c1.6,1,2.2,3.1,2.5,5c0.7,5.2-0.5,10.4-0.6,15.6c-0.1,7.3,2,14.8,0.2,21.9
	c-1.1,4.2-0.2,9.1-1.2,13.4c-0.3,1.3-0.9,2.5-1.1,3.7c-0.6,2.8,0,5.6,0.9,8.3c0.3,0.7,0.4,1.5,0.5,2.3c0,1.2-0.3,2.4-0.9,3.4
	l-3.6,8.6c-0.4,1-2,1.1-3,1.2c-1.9,0.2-4.1,0.4-5.6-0.8s-1.9-3.2-2.1-5.1c-0.5-3.6-0.7-7.2-0.6-10.8c0.1-0.9,0-1.9-0.2-2.8
	c-0.3-1-1.1-1.9-1.3-3c-0.3-1.4,0.5-2.8,0.7-4.2c0.2-1.3,0.2-2.6-0.1-3.9c-0.2-1.9-0.5-3.9-0.8-5.8c-0.4-2.7,0.2-5.4,0.6-8
	c0.4-2.5-0.1-5.1-0.6-7.6c0,2-0.2,4.1-0.8,6.1c-0.3,1-0.8,1.9-1.1,2.9c-1.2,4.4,1.4,9,1,13.6c-0.2,2.1-1,4.2-0.8,6.3
	c0.2,1.5,0.9,2.9,1.4,4.4s0.7,3.1,0,4.5c-2,3.7-0.5,8.8,1.3,12.6c0.4,0.7,0.7,1.4,0.9,2.1c0.5,1.7,0.1,3.6,0.2,5.4
	c-1,0.2-2.1-0.1-2.8-0.9c-0.3-0.3-0.5-0.6-0.7-0.9c-0.7-0.7-1.6-1.2-2.5-1.6c-0.6-0.3-1.2-0.5-1.8-0.4c-0.7,0.2-1.3,0.6-1.7,1.1
	c-0.6,0.5-1.2,1-1.9,1.4c-0.3,0.2-0.6,0.4-1,0.4c-0.4,0.1-0.7-0.1-0.9-0.5c0-0.1-0.1-0.2-0.1-0.3c-0.2-1.8-0.3-3.7-0.4-5.5
	c0-3.2-3.8-5.3-4.3-8.5c-0.4-2.5,0.3-5.1,0.1-7.6c-0.1-1.3-0.5-2.6-0.5-3.9c0-0.8,0.2-1.7,0.3-2.5c0.1-0.9,0-1.9,0-2.8l-0.2-2.9
	c-0.2-2.9-0.4-5.8-1.5-8.5c-1.3-3.1-2.1-6.4-2.4-9.7c-0.1-2.1,0-4.2-0.3-6.4c-0.2-1.9-0.7-3.8-0.6-5.7c0.1-1.5,0.6-2.9,0.7-4.4
	c0.2-2.9-0.9-5.6-1.7-8.4c-0.9-2.7-1.5-5.8-0.4-8.4c0.2-0.4,0.4-0.8,0.8-1.1c0.4-0.3,0.9-0.5,1.4-0.5c10.4-2.2,21-2.9,31.6-2
	C304,313.9,305.7,314.5,307.2,315.4z"/>
<circle class="st6" cx="272.8" cy="241.4" r="9.7"/>
<path class="st6" d="M271,253.5c0.1,0.6,0.1,1.1,0,1.7c-0.2,0.4-0.4,0.7-0.6,1.1c-0.9,1.2-2,2.3-3.1,3.4c0.6,1.3,1.6,2.3,2.9,2.9
	c1.3,0.5,2.6,0.9,4,1.1c0.7,0.2,1.4,0.2,2.1,0.1c0.6-0.2,1.3-0.4,1.8-0.8l5.4-3.2c0.8-0.4,1.6-1,2.2-1.6c1-1,1.5-2.4,1.6-3.8
	c0-0.3,0-0.5-0.2-0.7c-0.2-0.2-0.5-0.3-0.7-0.3c-1.9-0.4-3.4-2-4.2-3.7c-0.8-1.8-1.3-3.7-1.5-5.6l-5.7,3c-0.9,0.5-1.7,0.9-2.6,1.3
	c-0.6,0.3-1.7,0.5-2.1,1C269.4,250.3,270.8,252.4,271,253.5z"/>
<path class="st2" d="M267.3,257.9c-0.8,0.7-1.5,1.5-1.9,2.5c-0.4,1.2,0,2.5,0.3,3.7c1.6,5.1,2.8,10.3,3.6,15.6
	c0.5,3.6,0.7,7.3,0.9,11c0.5,7.5,1.2,19.4,2.2,26.9c3.6,0.2,7.2-0.9,10.8-1.3c6.7-0.7,13.7,0.9,20.3-0.6c-1.6-6.3-3.2-17.1-4.8-23.4
	c-0.7-2.5-1.2-5-1.5-7.6c-0.1-1.8-0.1-3.7,0-5.6c0.1-3.6-0.1-7.3-0.3-10.9c-0.2-4.2-0.5-8.5-1.5-12.6c-0.1-0.5-0.3-1-0.7-1.4
	c-0.6-0.4-1.4-0.3-2.1-0.2c-2.2,0.3-4.4-0.2-6.3-1.5c-0.8-0.5-1.9-1.2-2.6-0.6c-0.3,0.4-0.5,0.8-0.6,1.3c-0.7,1.7-2,3.1-3.8,3.7
	c-1.7,0.6-3.5,1-5.4,1.1c-0.6,0.1-1.1,0.1-1.7-0.2c-0.9-0.5-0.9-2.4-2-2.5C269.4,255.2,267.9,257.3,267.3,257.9z"/>
<path class="st3" d="M281.6,272.6c-2.2-2.1-3.2-5.2-4.8-7.9c-1.1-1.8-2.5-3.3-4.2-4.6c-0.8-0.6-1.6-1.2-2.3-1.9
	c-0.6-0.7-1-1.7-1.9-1.9c-0.7-0.2-1.5,0.1-2,0.6c-0.5,0.5-1,1-1.5,1.6c-2.6,2.7-7.1,3-9.1,6.1c-0.5,0.7-0.9,1.4-1.1,2.3
	c-0.6,4.5,0.6,9,3.2,12.6c0.5,0.8,1.3,1.5,2.2,1.8c-0.1,1.1,0,2.3,0.4,3.3c1.1,3.8,2.5,7.6,4.1,11.2c-0.4,1.4-0.7,2.9-0.8,4.4
	c-0.4,3.7,0,7.5-0.4,11.2c-0.3,3-1.2,6-1.2,9c0,0.5,0,1.1,0.5,1.3c0.2,0.1,0.5,0.2,0.7,0.2l7.4,0.2c4.3,0.1,8.7,0.3,12.9-0.5
	c0.6-0.1,1.1-0.3,1.6-0.5c1.4-0.8,1.9-2.6,2.1-4.2c0.3-2.1,0.4-4.2,0.4-6.3c0.9,2.9,2,5.8,4.7,7c1.4,0.7,3.1,0.6,4.7,0.6
	c3.4-0.2,6.8-0.5,10.2-1c0.7,0.1,1.4-0.4,1.5-1.2c0-0.1,0-0.3,0-0.4l0-3.3c0.1-6.7-1.6-13.1-2.2-19.8c-0.2-2.1-0.2-4.2-0.7-6.3
	c-0.2-0.9-0.5-1.7-0.7-2.6c-0.2-0.9-0.3-1.7-0.3-2.6l-0.5-6.7c-0.2-3.1-0.5-6.1-0.8-9.1c-0.1-3-0.6-6-1.3-8.9
	c-0.5-1.8-1.6-3.9-3.5-4.1c-1-0.1-2,0.3-3,0.6c-2.4,0.7-4.9,0.7-7.3,0c-0.7-0.3-1.5-0.5-2.3-0.6c-0.8-0.1-1.6,0.2-2.1,0.9
	c-0.2,0.5-0.3,1-0.3,1.5C283.8,260.5,283.2,266.8,281.6,272.6z"/>
<path class="st2" d="M271.8,272.8c-2.8-2.9-5.7-5.9-9.2-7.8c-1.4-0.7-3-1.3-4.6-1c-1.6,0.3-3,1.6-3,3.2c0,1,0.6,1.9,0.8,2.8
	c0.2,1.1-0.1,2.3,0.2,3.3c0.3,0.7,0.7,1.3,1.2,1.9l4.3,5.1c1.8,2.1,3.6,4.3,6,5.7s5.4,2.1,7.9,1.1c1.8-0.8,3.3-2.2,4.3-4
	c1.1-1.7,1.8-3.5,2.8-5.3c1.6-2.8,3.6-5.3,6.1-7.3c-1.3-0.3-2.8-0.8-3.6-1.8c-0.2-0.3-0.4-0.7-0.6-1l-1-2.1c-0.7,0-1.3,0.2-1.8,0.7
	c-0.4,0.5-0.9,0.9-1.3,1.4c-0.9,0.6-2,0.8-2.8,1.5c-0.3,0.3-0.6,0.7-0.8,1C275.6,271.7,273.8,272.7,271.8,272.8z"/>
<path class="st6" d="M288.9,260.2c2.1-3.8,2-8.4,2.6-12.8c0.1-1.1,0.5-2.2,1.2-3.2c1.2-1.4,3.3-1.4,5.2-1.2c0.5,0.1,1.2,0.3,1.2,0.9
	c0,0.2-0.1,0.4-0.3,0.5c-1.8,2.3-2.8,5.1-3,7.9c1,0.7,2.4-0.7,3.3,0c0.6,0.5,0.3,1.5,0,2.2c-0.8,1.7-1.7,3.4-2.6,5
	c-0.7,1.5-1.6,2.8-2.8,4c-0.8,0.7-1.7,1.3-2.5,2c-1.8,1.7-2.9,4.1-4.8,5.8c-0.2,0.2-0.4,0.3-0.6,0.3c-0.2,0-0.5-0.1-0.6-0.3
	c-0.9-0.8-1.7-1.7-2.3-2.8c-0.7-1.3-0.6-1.7,0.5-2.6C285.6,264.4,287.6,262.6,288.9,260.2z"/>
<path class="st3" d="M268.3,270.2c0.4,0.2,0.8,0.5,1.2,0.3c0.2-0.1,0.3-0.2,0.4-0.4c0.7-0.9,1.3-1.9,1.7-3c0.1-0.2,0.1-0.3,0.1-0.5
	c0-0.4-0.3-0.7-0.7-0.9c-1.7-1.1-3.6-2-5.5-2.6c-1.6-0.6-3.3-1.1-5-1c-1.3,0.1-2.5,0.7-3.3,1.7c-1.2,1.6,0.8,2,2.1,2.6
	C262.4,267.8,265.6,268.5,268.3,270.2z"/>
<path class="st4" d="M266.4,280.5c0,0.3,0.1,0.6,0.3,0.8c0.2-0.9-0.1-1.8,0.1-2.6c0.3-1.3,1.5-2.3,1.6-3.6
	C266.1,274.6,266.4,279.1,266.4,280.5z"/>
<polygon class="st7" points="373.1,233.2 373.1,239.1 348.5,240.6 347.8,234.7 "/>
<path class="st2" d="M264.1,242.8c1.5-1.3,0.6-3.9,1.7-5.6c0.6-0.9,1.6-1.4,2.6-1.8c1.2-0.6,2.5-0.9,3.8-1.1
	c1.4-0.1,2.7,0.4,3.6,1.3c0.4,0.4,0.7,1,1,1.5c0.9,1.1,2.4,1.6,3.8,1.3c0.8-0.2,1.6-0.8,1.6-1.6c-0.1-0.5-0.3-1-0.7-1.3l-1.7-1.9
	c-2-2.2-4.2-4.5-7-5c-2-0.4-4.1,0.2-6,0.8c-0.8,0.3-1.7,0.6-1.9,1.4c-0.1,0.5,0.1,1.1-0.1,1.7c-0.2,1.1-1.7,1.5-2.3,2.4
	c-0.7,0.9-0.5,2-0.6,3c-0.2,1-0.7,2-0.8,3.1c0,0.6,0.3,1.8,1,2C262.9,243.3,263.7,242.1,264.1,242.8z"/>
<path class="st8" d="M281.7,236c-0.5-2.7-1.6-5.2-3.2-7.4c-1.4-2-3.4-3.6-5.7-4.6c-2.3-0.9-5-0.7-7.1,0.6c-1.6,1.1-2.8,2.7-3.6,4.5
	c-1.6,3.4-2.1,7.5-0.3,10.7c0.7-0.9,2-0.5,3.1-0.8c1.4-0.4,2.5-1.3,3.9-1.9C272.7,235.5,277.5,236.9,281.7,236z"/>
<path class="st4" d="M262.7,235.8c-0.1-1.1-0.2-2.4,0.5-3.1c0.1-0.1,0.2-0.2,0.3-0.1c0.1,0,0.2,0.1,0.2,0.2c0.4,0.7,0.8,1.5,1.1,2.2
	c-0.9-0.2-1.9,0.2-2.4,0.9"/>
<path class="st4" d="M276.8,232.7l-0.2-2.2c0-0.2,0-0.4,0-0.5c0.2-0.3,0.6-0.4,0.9-0.2c0.3,0.2,0.5,0.4,0.7,0.7
	c0.5,0.8,0.9,1.6,1.2,2.5c-1-0.2-2-0.2-2.9,0"/>
<polygon class="st4" points="282.3,320.4 282.3,325.4 278.1,325.7 256.1,325.7 256.1,320.4 "/>
<polygon class="st5" points="282.3,320.4 282.3,325.7 256.1,325.7 186.8,238.8 186.8,234.7 201.3,234.7 "/>
<polygon class="st4" points="282.3,320.4 282.3,325.7 256.1,325.7 186.8,238.8 186.8,234.7 201.3,234.7 "/>
<polygon class="st4" points="282.3,320.4 282.3,325.7 256.1,325.7 186.8,238.8 186.8,234.7 256.5,320.4 "/>
<path class="st3" d="M195.9,407.5c0.2,1-0.5,1.9-1.5,2.1c0,0-0.1,0-0.1,0c-1.7,0.6-3.5,1.1-4.7,2.4c-1.2,1.3-1.4,3.7,0,4.7
	c0.7,0.4,1.6,0.7,2.4,0.7c2.7,0.2,5.6,0.2,8.1-1c1.8-0.8,3.5-2.2,5.4-2.1c1,0.1,2.1,0.5,3,0.1c0.9-0.5,1.2-1.7,1.2-2.8
	c0-2.2-0.3-4.5-1-6.6c-0.1-0.3-3.9-0.5-4.4-0.6l-4.7-0.6c-0.9-0.1-2.8-0.8-3.5,0C195.5,404.5,195.9,406.6,195.9,407.5z"/>
<path class="st3" d="M223.7,392.4c0.2,1.1,0.5,2.2,1,3.2c0.6,1.6,1.5,3.4,3.1,4.2c1.4,0.7,3.2,0.5,4.7-0.2c0.6-0.3,1.1-0.7,1.6-1.2
	c0.5-0.8,0.7-1.8,0.6-2.7c0-2.3-0.1-4.8-1.2-6.8c-0.9-1.8-2.5-3.4-2.5-5.4l-5.5,1.1c-0.3,0-0.6,0.1-0.8,0.3
	c-0.2,0.2-0.3,0.4-0.4,0.7C223.6,387.7,223.4,390.1,223.7,392.4z"/>
<path class="st3" d="M157.9,334.9c-0.2,1.9-0.1,4,0.9,5.7c1,1.7,3.2,2.8,5,2.1c0.2,0,0.4-0.2,0.5-0.3c0-0.2,0-0.4-0.1-0.6
	c-0.8-2.2-0.8-4.6,0.2-6.7c0.1-0.3,0.4-0.6,0.7-0.5c0.1,0.1,0.2,0.2,0.3,0.3c0.3,0.5,0.4,1.1,0.4,1.7c-0.1,0.5-0.1,1.1,0,1.6
	c0.1,0.5,0.7,1,1.2,0.8c0.3-0.2,0.5-0.5,0.6-0.8c1.3-3.9,0.7-8.2,0.1-12.3c0-0.4-0.3-0.7-0.6-0.7c0,0-0.1,0-0.1,0
	c-2.9-0.3-4.4-1-6.1,1.7C159.3,329.1,157.9,332.2,157.9,334.9z"/>
<path class="st2" d="M191.3,325c-0.8,3.5-1.7,7.1-1.8,10.7c0,2.3,0.2,4.5,0.5,6.7l0.6,5.2c0.2,1.8,0.4,3.5,0.7,5.3
	c0.2,0.9,0.3,1.8,0.3,2.7c-0.1,0.9-0.2,1.8-0.4,2.7c-0.4,1.9-0.6,3.7-0.6,5.6c-0.1,3,0.3,6.1,0.5,9.1c0.5,6,0.4,12.1-0.2,18.1
	c-0.2,1.6,0.1,3.3,1,4.7c0.4,0.4,0.7,0.9,0.9,1.4c0.5,1.4-0.6,2.8-0.9,4.2c-0.4,2.3,1.2,4.5,3.5,4.8c4.8,0.6,9.8,0.3,14.2,2.5
	c0.5-1.3-0.5-2.9-0.1-4.2c0.3-0.8,1.1-1.4,1.6-2.1c0.7-1.1,1.1-2.4,1-3.7c0-1.7-0.3-3.4-0.9-5c-0.5-1.3-1.3-2.6-1.2-4.1
	c0-0.7,0.2-1.4,0-2.1c-0.2-0.4-0.5-0.7-0.8-1c-1.8-2-2.9-4.5-3.2-7.2c-0.2-2.7-0.2-5.3,0.3-8c0.3-2.5,0.7-5.2,2.3-7.1
	c-0.7-5.9-0.3-11.9,1.3-17.7c0.2-0.5,0.4-1.1,1-1.3c0.4,0,0.9,0.1,1.2,0.5c1,0.9,1.4,2.2,1.8,3.4c0.5,1.3,0.9,2.8,0.6,4.1
	c-0.1,0.6-0.4,1.1-0.6,1.7c-0.4,1.2-0.3,2.4,0.2,3.6c0.2,0.4,0.4,0.9,0.4,1.3c-0.1,0.4-0.2,0.8-0.4,1.2c-0.5,1.4-0.3,3,0.5,4.3
	c0.8,1.3,1.7,2.5,2.8,3.5c-0.5,2.3-0.4,4.7,0.4,7c0.1,0.2,0.1,0.4,0.1,0.7c-0.1,0.2-0.4,0.3-0.6,0.5c-0.6,0.5-0.2,1.4,0.2,2.1
	c1.1,1.8,2.3,3.5,3.7,5.1c1.2,1.4,1.1,4.2,2.9,4.8c0.8,0.2,1.5,0.2,2.3,0c1.8-0.3,3.8-0.8,4.6-2.4c0.4-0.6,0.5-1.4,1.1-1.9
	s1.3-0.6,1.6-1.1c0.3-0.6,0-1.3,0.1-2c0.1-0.7,0.7-1.2,0.9-1.9c0.4-1.6-1.5-3-1.7-4.6c-0.4-2.4,2.7-4.2,2.5-6.7
	c-0.3-5.3-0.4-10.5-0.7-15.8c-0.3-4.7-0.4-9.4-0.1-14.2c0.2-2.9,0.6-6-0.5-8.7c-1.5-3.8-5.8-6-10-6.4c-4.1-0.4-8.3,0.6-12.4,1.2
	C205,325.6,198.1,325.7,191.3,325z"/>
<circle class="st9" cx="203.6" cy="257.4" r="9.7"/>
<path class="st9" d="M199.6,268.9c-0.7,1.6-2.2,2.6-4,2.5c-0.4,1.5,0.5,2.9,1.5,4.1c4.1,4.7,10.4,6.9,16.5,5.7
	c1.2-0.2,2.3-0.7,3.2-1.4c1.3-1.1,2.2-2.6,2.5-4.3c0.3-1.7,0.4-3.4,0.2-5.1c0-0.3-0.1-0.7-0.3-0.9c-0.2-0.2-0.5-0.3-0.8-0.3
	c-2-0.2-4.2-0.3-6-1.3c-1.8-1-3.1-3.3-2.2-5.1c-0.1,0.3-3.7,0.4-4.1,0.5c-1.5,0.2-2.9,0.4-4.4,0.7c-0.7,0-1.4,0.2-2.1,0.4
	c-0.9,0.5-0.6,0.2-0.3,1.1C199.7,266.7,200.2,267.6,199.6,268.9z"/>
<path class="st2" d="M207,274.8c-1.3,0-2.6-0.1-3.9-0.4c-1.3-0.3-2.4-1.1-3.2-2.1c-0.4-0.7-0.7-1.5-1.5-1.9
	c-1.2-0.6-2.5,0.4-3.4,1.4c-0.8,0.9-1.8,1.7-2.9,2.3c-1.3,0.7-2.8,0.9-4,1.7c-1,0.7-1.8,1.6-2.4,2.6l-8.6,11.7
	c-3.4,4.7-6.4,9.7-9.5,14.7c-2.7,4.3-4,9.2-6.1,13.9c-0.2,0.3-0.2,0.6-0.2,0.9c0.1,0.3,0.5,0.6,0.7,0.4c-0.9,0.9-0.1,2.4-0.3,3.7
	c-0.2,0.9-0.7,1.7-1.4,2.3c1.3-0.2,2.7-0.1,4,0.2c1.4,0.4,2.6,1,3.8,1.8c0.7-0.1,0.7-1.4,1.2-1.9c0.3-0.3,0.8-0.2,1.2-0.3
	c1.6-0.3,2.3-2.3,3.5-3.4c1-0.9,2.5-1.2,3.6-2.1c1.8-1.4,2.2-3.9,3.1-5.9c0.8-1.7,2-3.3,2.7-5.1c0.5-1.2,0.7-2.4,1.3-3.5
	c1-1.7,3-2.7,4.8-3.5c1.2-0.5,2.4-1.1,3.7-1c-0.1,2.8-0.4,5.6,0.2,8.3c0.2,1,0.5,1.9,0.8,2.9c1.2,4.3,1.4,8.8,1.5,13.3
	c2.8-0.6,5.6-1,8.5-1c2.2-0.1,4.5,0.2,6.7,0.2c2.7,0,5.3-0.6,8-0.7s5.4,0,7.8,1.2c-0.2-3.8-0.1-7.7,0.3-11.5l0.6-6
	c0.1-1.7,0.4-3.5,0.8-5.2c0.4-1.4,0.9-2.7,1.2-4.1c1.4-4.8,1.1-10,0.9-15.1c-0.1-2.6-1.1-5.1-2.3-7.4c-0.4-0.9-0.9-1.7-1.5-2.5
	c-2.9-4-7.6-6.2-12.5-5.9c-0.3,0-0.6,0.1-0.9,0.2c-0.5,0.3-0.9,0.8-1.1,1.4C211,271.6,209.2,273.5,207,274.8z"/>
<path class="st2" d="M195.1,260.6c0.3-0.6,1-0.8,1.5-1.3c0.9-0.9,0.5-2.4,0.6-3.6c0.2-1.8,1.7-3.3,3.4-4c1.8-0.6,3.6-0.7,5.4-0.3
	c0.9,0.1,1.7,0.3,2.5,0.8c0.3,0.2,0.6,0.5,0.9,0.7c1.1,0.7,2.6,0.3,3.3-0.8c-2.1-2.6-4.5-5.3-7.8-6.1c-1.1-0.2-2.3-0.3-3.4-0.3
	c-1.5,0-3.1-0.1-4.5,0.5c-1.9,0.8-3.2,2.6-3.9,4.5c-0.6,2-0.9,4-1,6.1c-0.1,1.4-0.1,2.7,0,4.1c0.2,1.9,0.9,3.7,2,5.2
	c0.1,0.2,0.4,0.4,0.6,0.6C197.6,267.9,194.8,261.1,195.1,260.6z"/>
<path class="st8" d="M212.3,250.7c-0.3-2.9-2.4-5.2-4.5-7.1c-1.7-1.6-3.8-2.9-6.1-3.7c-2.3-0.7-4.9-0.5-6.9,0.8
	c-1.6,1.1-2.6,2.8-3.3,4.6c-1,2.1-1.5,4.4-1.5,6.7c0.2,2.3,1.3,4.6,3.2,5.8c0.7-1.1,2-1.6,3.1-2C201.7,253.8,207,252.1,212.3,250.7z
	"/>
<path class="st4" d="M194,249.5c0.2,0,0.3,0.2,0.4,0.4c0.5,0.8,0.9,1.6,1.3,2.4c-0.7,0.2-1.9,0.3-2.3-0.3
	C193.2,251.6,193.4,249.4,194,249.5z"/>
<path class="st4" d="M207.8,248.1c-0.1,0.1-0.3-0.1-0.3-0.4v-2.3c0-0.1,0-0.1,0-0.2c0.1-0.1,0.1-0.1,0.2-0.1
	c0.5-0.1,0.9,0.4,1.2,0.8c0.5,0.6,0.9,1.3,1.2,2.1l-2.6-0.1"/>
<path class="st2" d="M239.7,287c0.6-0.5,1.2-1,1.8-1.5c1.7-1.1,3.7-1.6,5.6-2.3c1.9-0.7,3.8-1.9,4.5-3.7c0.4-1.2,0.5-2.4,0.4-3.6
	c0-0.5-0.1-1-0.3-1.5c-0.2-0.4-0.6-0.8-1-1c-2.6-1.9-6-2-9.2-1.8c-7,0.4-13.8,2.1-20.2,5c-0.3,0.1-0.6,0.3-0.8,0.6
	c-0.1,0.3-0.2,0.6-0.2,0.8c-0.1,1.8,0.1,3.6,0.7,5.3c0.8,2.2,2.6,3.9,3.3,6.1c0.3,1,0.4,2,0.7,3c0.2,1,0.8,1.9,1.7,2.5
	c2.4,1.4,4.6-0.5,6.3-2L239.7,287z"/>
<path class="st3" d="M208.4,295.4l-3.1-6.7c-0.4-0.9-0.8-1.9-1.2-2.9c-0.4-1.2-0.5-2.4-0.8-3.6c-1.1-3.9-3.8-7.2-5.1-11
	c-0.1-0.3-0.3-0.7-0.5-0.9c-0.4-0.3-0.9-0.4-1.3-0.2c-1.9,0.3-3.3,1.7-5,2.5c-0.8,0.4-1.6,0.6-2.4,1c-0.8,0.4-1.4,1.1-1.6,1.9
	c-0.2,0.9,0.3,1.8,0.7,2.7c1.6,3.7,2,7.9,2.1,11.9c0.1,2.7-0.1,5.7-1.7,7.9c-3.1,4.2-1.1,10.5,0,15.6c0.1,0.6,0.3,1.3,0.4,1.9
	c0.1,0.8,0.1,1.6,0.1,2.4c0,2.7-0.2,5.5-1.3,8c1.1,0.6,2.4,0.9,3.6,1c3.5,0.4,7,0.8,10.6,0.9c1.1,0.1,2.2,0,3.3-0.2
	c2.7-0.7,4.5-3.2,4.5-5.9c0.2,1.7,0.6,3.5,1.8,4.7c1.2,1.2,3,1.3,4.6,1.4c4.7,0.2,9.3,0.1,14-0.4c0.3,0,0.6-0.1,0.9-0.2
	c0.9-0.4,0.9-1.7,0.9-2.7c-0.1-1.9-0.3-3.7-0.5-5.6c-0.2-1.2-0.3-2.4-0.3-3.6c0.1-1.2,0.3-2.4,0.6-3.6c0.8-3.8,1.5-7.6,1.2-11.5
	c-0.1-0.9-0.1-1.9-0.1-2.8c0.2-2.1,1.3-4.2,1.1-6.3c-0.6-6.2-1.1-12.7-2.8-18.7c-0.3-1.1-0.7-2.2-1.7-2.9c-1.2-0.8-2.9-0.4-4.3-0.9
	c-0.7-0.3-1.3-0.7-1.8-1.1c-1.3-0.8-2.7-1.2-4.2-1.3c-1.1,0-2.4,0.2-3,1.1c-0.3,0.5-0.5,1.1-0.6,1.7c-0.9,3.7-1.9,7.3-2.9,11l-1,3.5
	l-2.6,9.4C208.5,294.1,208.7,294.4,208.4,295.4z"/>
<polyline class="st5" points="223.9,258.7 282.4,320.2 282.4,325.5 256.3,325.5 212.3,268.1 "/>
<polyline class="st4" points="223.9,258.7 282.4,320.2 282.4,325.5 256.3,325.5 212.3,268.1 "/>
<polygon class="st4" points="213.3,267.2 213.5,267.3 256.7,320.2 282.4,320.2 282.4,325.5 256.3,325.5 212.3,268.1 "/>
<path class="st3" d="M220,268.5c-2.1,0.9-4.5,2.1-5.1,4.3c-0.1,0.4-0.2,0.8-0.1,1.2c0.3,1,1.2,1.6,2.2,1.7c1,0,2-0.2,2.9-0.5
	l12.5-4.1c0.3-0.1,0.7-0.3,0.8-0.6c0-0.2,0-0.4-0.1-0.6c-0.4-0.9-0.8-2.9-1.6-3.5c-0.7-0.5-2-0.3-2.8-0.3
	C225.7,266.1,222.8,267.3,220,268.5z"/>
<path class="st2" d="M231.2,271.6c2.1,0,4.2,0.3,6.2,1c2,0.7,3.8,1.9,5.1,3.5c0.4,0.5,0.7,1,0.8,1.6c0.1,0.6,2.1,1,1.7,1.4
	c1.3-0.2,1,0.4,2.4,0.4s2.8-0.4,3.6-1.4c0.6-0.9,0.8-1.9,0.7-3c0-0.7-0.1-1.4-0.4-2.1c-0.6-1.3-2-2-3.3-2.5l-10.8-4.9
	c-0.6-0.3-1.3-0.6-2-0.7c-0.6-0.1-1.2,0-1.8,0l-4.9,0.6c2.2,1.4,3.5,3.9,3.3,6.5"/>
<text transform="matrix(1 0 0 1 104.2579 528.3973)" class="st3 st10 st11">Videos Coming Soon</text>
</svg>
